<?xml version="1.0" encoding="UTF-8" standalone="no"?>
<svg
   xmlns:dc="http://purl.org/dc/elements/1.1/"
   xmlns:cc="http://creativecommons.org/ns#"
   xmlns:rdf="http://www.w3.org/1999/02/22-rdf-syntax-ns#"
   xmlns:svg="http://www.w3.org/2000/svg"
   xmlns="http://www.w3.org/2000/svg"
   xmlns:sodipodi="http://sodipodi.sourceforge.net/DTD/sodipodi-0.dtd"
   xmlns:inkscape="http://www.inkscape.org/namespaces/inkscape"
   sodipodi:docname="doacoes-entregues-v2.svg"
   inkscape:version="1.0 (6e3e5246a0, 2020-05-07)"
   id="svg8"
   version="1.1"
   viewBox="0 0 210 297"
   height="297mm"
   width="210mm">
  <defs
     id="defs2">
    <clipPath
       clipPathUnits="userSpaceOnUse"
       id="clipPath849">
      <path
         d="M 0,960 H 960 V 0 H 0 Z"
         id="path847" />
    </clipPath>
  </defs>
  <sodipodi:namedview
     inkscape:window-maximized="1"
     inkscape:window-y="34"
     inkscape:window-x="56"
     inkscape:window-height="1023"
     inkscape:window-width="1864"
     showgrid="false"
     inkscape:document-rotation="0"
     inkscape:current-layer="layer1"
     inkscape:document-units="mm"
     inkscape:cy="511.30798"
     inkscape:cx="362.64448"
     inkscape:zoom="0.49497475"
     inkscape:pageshadow="2"
     inkscape:pageopacity="0.0"
     borderopacity="1.0"
     bordercolor="#666666"
     pagecolor="#ffffff"
     id="base" />
  <metadata
     id="metadata5">
    <rdf:RDF>
      <cc:Work
         rdf:about="">
        <dc:format>image/svg+xml</dc:format>
        <dc:type
           rdf:resource="http://purl.org/dc/dcmitype/StillImage" />
        <dc:title></dc:title>
      </cc:Work>
    </rdf:RDF>
  </metadata>
  <g
     id="layer1"
     inkscape:groupmode="layer"
     inkscape:label="Layer 1">
    <g
       id="g845"
       clip-path="url(#clipPath849)"
       transform="matrix(0.35277777,0,0,-0.35277777,-62.561164,331.59947)">
      <g
         id="g851"
         transform="translate(482.8076,144.8457)">
        <path
           d="m 0,0 c -25.35,34.172 -50.247,67.746 -75.156,101.312 -42.281,56.971 -84.089,114.302 -127.046,170.759 -23.6,31.017 -42.144,64.197 -52.154,101.901 -27.122,102.153 6.445,211.924 90.393,279.939 39.674,32.144 84.897,52.108 135.689,56.834 98.562,9.17 178.852,-26.034 239.704,-103.965 31.038,-39.749 48.281,-85.554 52.874,-135.834 6.752,-73.921 -13.591,-139.608 -59.39,-198.084 C 174.112,233.536 144.804,193.039 114.843,153.055 77.59,103.341 40.354,53.615 3.104,3.898 2.229,2.73 1.287,1.612 0,0"
           style="fill:#1d1d1b;fill-opacity:1;fill-rule:evenodd;stroke:none"
           id="path853" />
      </g>
      <g
         id="g855"
         transform="translate(432.1699,732.5845)">
        <path
           d="m 0,0 c -3.154,-5.462 -1.284,-12.44 4.174,-15.597 5.457,-3.143 12.436,-1.279 15.59,4.182 L 31.512,9.396 c -0.218,-32.534 -0.288,-51.291 -0.288,-83.827 v -1.528 c 0,-4.588 3.719,-8.306 8.307,-8.306 4.592,0 8.303,3.718 8.303,8.306 v 52.577 c 0,4.59 3.72,8.307 8.308,8.307 4.593,0 8.305,-3.717 8.305,-8.307 v -69.372 c 0,-4.592 3.722,-8.304 8.306,-8.304 4.593,0 8.31,3.712 8.31,8.304 v 69.368 c 0,4.59 3.716,8.306 8.309,8.306 4.585,0 8.301,-3.716 8.301,-8.306 v -51.063 c 0,-4.589 3.716,-8.309 8.31,-8.309 4.584,0 8.306,3.72 8.306,8.309 v 51.063 c 0,4.59 3.715,8.306 8.304,8.306 4.586,0 8.305,-3.716 8.305,-8.306 v -31.916 c 0,-4.59 3.721,-8.31 8.306,-8.31 4.586,0 8.306,3.72 8.306,8.31 v 73.414 c 0,35.15 -28.491,63.641 -63.641,63.641 -21.516,0 -40.54,-10.684 -52.057,-27.024 C 19.931,34.723 11.67,20.147 0,0"
           style="fill:#ffffff;fill-opacity:1;fill-rule:evenodd;stroke:none"
           id="path857" />
      </g>
      <g
         id="g859"
         transform="translate(535.4551,490.5225)">
        <path
           d="m 0,0 c 3.146,5.458 1.277,12.438 -4.175,15.589 -5.457,3.147 -12.436,1.28 -15.589,-4.179 L -31.517,-9.4 c 0.215,32.534 0.291,51.295 0.291,83.828 v 1.53 c 0,4.585 -3.72,8.306 -8.304,8.306 -4.593,0 -8.311,-3.721 -8.311,-8.306 V 23.381 c 0,-4.589 -3.714,-8.31 -8.303,-8.31 -4.59,0 -8.309,3.721 -8.309,8.31 V 92.75 c 0,4.588 -3.716,8.304 -8.308,8.304 -4.584,0 -8.303,-3.716 -8.303,-8.304 V 23.381 c 0,-4.589 -3.716,-8.306 -8.308,-8.306 -4.588,0 -8.307,3.717 -8.307,8.306 v 51.064 c 0,4.589 -3.716,8.305 -8.302,8.305 -4.59,0 -8.308,-3.716 -8.308,-8.305 V 23.381 c 0,-4.589 -3.719,-8.306 -8.308,-8.306 -4.59,0 -8.303,3.717 -8.303,8.306 v 31.916 c 0,4.591 -3.718,8.311 -8.308,8.311 -4.584,0 -8.303,-3.72 -8.303,-8.311 v -73.413 c 0,-35.15 28.491,-63.642 63.642,-63.642 21.514,0 40.541,10.68 52.053,27.029 C -19.935,-34.727 -11.672,-20.151 0,0"
           style="fill:#ffffff;fill-opacity:1;fill-rule:evenodd;stroke:none"
           id="path861" />
      </g>
      <g
         id="g863"
         transform="translate(562.8037,506.3159)">
        <path
           d="m 0,0 c -6.303,0 -11.409,5.106 -11.409,11.411 0,6.299 5.106,11.41 11.409,11.41 L 23.898,22.59 c -28.283,16.081 -44.564,25.4 -72.739,41.668 l -1.329,0.765 c -3.964,2.293 -5.33,7.373 -3.032,11.343 2.287,3.972 7.369,5.336 11.342,3.041 L 3.67,53.118 c 3.976,-2.293 9.058,-0.932 11.35,3.04 2.296,3.973 0.933,9.053 -3.045,11.346 l -60.071,34.689 c -3.978,2.291 -5.338,7.373 -3.04,11.345 2.295,3.969 7.368,5.334 11.345,3.036 L 20.28,81.891 c 3.977,-2.292 9.058,-0.933 11.35,3.04 2.294,3.974 0.932,9.055 -3.045,11.347 l -44.221,25.535 c -3.977,2.293 -5.337,7.374 -3.045,11.343 2.296,3.973 7.378,5.337 11.351,3.041 l 44.225,-25.528 c 3.973,-2.297 9.053,-0.937 11.346,3.037 2.298,3.972 0.933,9.054 -3.045,11.345 l -27.639,15.962 c -3.975,2.291 -5.334,7.372 -3.041,11.345 2.296,3.974 7.377,5.333 11.349,3.04 l 63.577,-36.71 C 119.885,101.114 130.312,62.192 112.738,31.756 101.982,13.122 83.217,1.986 63.305,0.184 40.039,-0.103 23.283,0.031 0,0"
           style="fill:#ffffff;fill-opacity:1;fill-rule:evenodd;stroke:none"
           id="path865" />
      </g>
      <g
         id="g867"
         transform="translate(404.8159,716.79)">
        <path
           d="M 0,0 C 6.302,0 11.412,-5.106 11.412,-11.401 11.412,-17.71 6.302,-22.82 0,-22.82 l -23.898,0.231 C 4.384,-38.67 20.671,-47.988 48.842,-64.257 l 1.328,-0.762 c 3.971,-2.296 5.329,-7.373 3.038,-11.34 -2.294,-3.979 -7.375,-5.342 -11.345,-3.047 l -45.532,26.289 c -3.978,2.293 -9.056,0.932 -11.353,-3.04 -2.29,-3.972 -0.933,-9.054 3.045,-11.347 l 60.075,-34.684 c 3.977,-2.295 5.335,-7.373 3.04,-11.345 -2.292,-3.974 -7.37,-5.338 -11.348,-3.041 l -60.07,34.684 c -3.977,2.291 -9.052,0.932 -11.348,-3.04 -2.295,-3.974 -0.937,-9.054 3.041,-11.347 l 44.224,-25.532 c 3.973,-2.296 5.336,-7.373 3.041,-11.346 -2.294,-3.969 -7.375,-5.333 -11.348,-3.041 l -44.225,25.532 c -3.973,2.297 -9.054,0.933 -11.344,-3.041 -2.294,-3.972 -0.937,-9.049 3.04,-11.345 l 27.643,-15.962 c 3.971,-2.292 5.332,-7.373 3.038,-11.345 -2.29,-3.974 -7.375,-5.333 -11.346,-3.04 l -63.579,36.71 c -30.442,17.574 -40.868,56.496 -23.295,86.934 10.756,18.633 29.522,29.77 49.435,31.569 C -40.042,0.107 -23.281,-0.03 0,0"
           style="fill:#ffffff;fill-opacity:1;fill-rule:evenodd;stroke:none"
           id="path869" />
      </g>
    </g>
  </g>
</svg>
