<?xml version="1.0" encoding="UTF-8" standalone="no"?>
<svg
   xmlns:dc="http://purl.org/dc/elements/1.1/"
   xmlns:cc="http://creativecommons.org/ns#"
   xmlns:rdf="http://www.w3.org/1999/02/22-rdf-syntax-ns#"
   xmlns:svg="http://www.w3.org/2000/svg"
   xmlns="http://www.w3.org/2000/svg"
   width="107.40263mm"
   height="107.42966mm"
   viewBox="0 0 107.40263 107.42966"
   version="1.1"
   id="svg8">
  <defs
     id="defs2" />
  <metadata
     id="metadata5">
    <rdf:RDF>
      <cc:Work
         rdf:about="">
        <dc:format>image/svg+xml</dc:format>
        <dc:type
           rdf:resource="http://purl.org/dc/dcmitype/StillImage" />
        <dc:title></dc:title>
      </cc:Work>
    </rdf:RDF>
  </metadata>
  <g
     id="layer1"
     transform="translate(-23.235167,-135.90474)">
    <path
       fill="param(fill) #000" fill-opacity="255" stroke="param(outline) #FFF" stroke-opacity="255" stroke-width="param(outline-width) 0"
       d="M 72.00342,243.10802 C 63.910527,242.33639 55.814499,239.63881 48.936715,235.42224 42.021469,231.1827 35.359825,224.52106 31.120288,217.60581 21.45897,201.84692 20.62134,182.14967 28.908503,165.59472 c 4.360136,-8.71009 11.695855,-16.69653 20.028212,-21.80486 15.758889,-9.66132 35.456141,-10.49895 52.011095,-2.21179 8.71009,4.36014 16.69653,11.69586 21.80486,20.02822 9.66132,15.75889 10.49895,35.45614 2.21179,52.01109 -4.36014,8.71009 -11.69586,16.69653 -20.02822,21.80486 -9.754501,5.9802 -21.665846,8.76004 -32.93282,7.68578 z m 12.070249,-4.27984 c 10.52163,-1.59148 19.765881,-6.16282 27.367711,-13.53351 8.08796,-7.84203 13.05999,-17.50625 14.74309,-28.65639 0.52798,-3.49773 0.52798,-10.56673 0,-14.06446 -1.60375,-10.62444 -6.13178,-19.79653 -13.56204,-27.47159 -7.83328,-8.09137 -17.418611,-13.02202 -28.65372,-14.73937 -3.507489,-0.53614 -10.556975,-0.53614 -14.064463,0 -11.223354,1.71555 -20.815277,6.64895 -28.655379,14.73829 -7.425041,7.66108 -11.922006,16.79827 -13.57262,27.57763 -0.266615,1.74113 -0.369658,3.67211 -0.369658,6.92727 0,5.00528 0.284781,7.47647 1.378876,11.96529 4.299965,17.64174 18.643981,31.98576 36.285723,36.28572 2.393226,0.58332 5.771879,1.14871 8.186777,1.36999 1.913636,0.17536 8.777593,-0.0755 10.915703,-0.39887 z m -9.971075,-4.00438 c -1.821487,-0.18033 -5.72893,-0.75729 -6.822314,-1.00737 l -1.154545,-0.26407 -0.772475,-14.57357 c -0.42486,-8.01546 -0.779096,-14.87278 -0.78719,-15.23847 -0.01438,-0.64987 0.02769,-0.68008 1.859595,-1.33537 3.242778,-1.15997 5.456963,-2.9609 7.477058,-6.08154 3.07586,-4.7516 4.472004,-12.92846 3.145328,-18.4214 -1.674156,-6.93163 -6.943807,-12.91869 -12.706614,-14.43648 -6.976839,-1.83755 -15.079436,4.39202 -17.754694,13.65044 -0.740561,2.5629 -0.90991,6.41119 -0.424934,9.6562 0.771692,5.16344 2.447729,8.98577 5.282925,12.04813 1.558865,1.68376 3.184009,2.73772 5.520484,3.58021 l 1.923737,0.69367 -0.11947,1.60015 c -0.06571,0.88008 -0.392854,6.97197 -0.72699,13.53754 -0.334134,6.56556 -0.654535,11.98441 -0.712,12.04187 -0.160379,0.16038 -3.141023,-1.49763 -5.455072,-3.03443 -8.803109,-5.84631 -15.512094,-14.93364 -18.397517,-24.91948 -2.976654,-10.30158 -2.296163,-20.98994 1.963058,-30.83345 4.337367,-10.02412 13.047918,-18.84107 22.91783,-23.19779 10.555025,-4.65913 22.15389,-5.22907 32.939185,-1.61855 4.95966,1.66031 8.59274,3.58403 12.918441,6.84033 8.77465,6.60537 14.9947,16.45375 17.09642,27.06923 0.98984,4.99953 1.17372,8.80935 0.65916,13.6573 -1.44953,13.65698 -8.68611,25.53875 -20.22453,33.20675 -0.99895,0.66386 -1.889091,1.20703 -1.978091,1.20703 -0.089,0 -0.16211,-0.30701 -0.16245,-0.68224 -4.2e-4,-0.37522 -0.23597,-5.12198 -0.52361,-10.54834 -0.28765,-5.42637 -0.52353,-10.35841 -0.52417,-10.96009 l -0.001,-1.09398 0.89215,-0.23769 c 1.846151,-0.49186 4.194721,-1.91949 5.874091,-3.5707 2.56974,-2.52664 2.57618,-2.54973 2.56957,-9.22266 -0.003,-3.05955 -0.12822,-7.02699 -0.27821,-8.81653 -0.29491,-3.51872 -1.52922,-15.26738 -1.93522,-18.42025 l -0.25004,-1.94174 h -1.12708 -1.12708 v 15.21901 15.21901 h -1.36446 -1.36447 v -15.21901 -15.21901 h -1.574381 -1.57438 v 15.21901 15.21901 h -1.36446 -1.36446 v -15.21901 -15.21901 h -1.57438 -1.57438 v 15.21901 15.21901 h -1.36447 -1.36446 v -15.21901 -15.21901 h -1.441956 -1.441958 l -0.250039,1.94174 c -0.405999,3.15287 -1.640307,14.90153 -1.935222,18.42025 -0.149989,1.78954 -0.275184,5.75698 -0.278213,8.81653 -0.0066,6.67374 -9e-5,6.69711 2.569574,9.22092 1.677304,1.64736 3.543594,2.79539 5.664174,3.48427 1.06187,0.34494 1.10205,0.38584 1.10159,1.12103 -2.1e-4,0.41967 -0.28303,6.14741 -0.62835,12.72832 -0.34533,6.58091 -0.6285,12.32186 -0.62927,12.75767 -0.001,0.67037 -0.0903,0.82638 -0.57868,1.01313 -1.31124,0.50139 -5.375072,1.44219 -7.518703,1.74063 -2.344445,0.32639 -7.71102,0.57245 -9.222202,0.42285 z M 55.327888,198.38111 c -2.64054,-1.77308 -4.364217,-4.23421 -5.714009,-8.1587 -0.617881,-1.79647 -0.68043,-2.2055 -0.672053,-4.39487 0.01121,-2.92817 0.680947,-5.74635 1.907605,-8.02691 0.881208,-1.63831 1.359721,-2.09017 1.774354,-1.67554 0.205643,0.20564 0.186195,0.53314 -0.09414,1.58519 -0.549241,2.06123 -0.838815,5.26818 -0.685572,7.59246 0.24061,3.64937 2.296908,8.99804 4.622624,12.02398 0.64597,0.84045 1.117837,1.61977 1.04859,1.73181 -0.243777,0.39445 -0.888482,0.19479 -2.187402,-0.67742 z"
       id="path847" />
  </g>
</svg>
