<?xml version="1.0" encoding="UTF-8" standalone="no"?>
<svg
   xmlns:dc="http://purl.org/dc/elements/1.1/"
   xmlns:cc="http://creativecommons.org/ns#"
   xmlns:rdf="http://www.w3.org/1999/02/22-rdf-syntax-ns#"
   xmlns:svg="http://www.w3.org/2000/svg"
   xmlns="http://www.w3.org/2000/svg"
   width="107.40262mm"
   height="107.42965mm"
   viewBox="0 0 107.40262 107.42965"
   version="1.1"
   id="svg8">
  <defs
     id="defs2" />
  <metadata
     id="metadata5">
    <rdf:RDF>
      <cc:Work
         rdf:about="">
        <dc:format>image/svg+xml</dc:format>
        <dc:type
           rdf:resource="http://purl.org/dc/dcmitype/StillImage" />
        <dc:title></dc:title>
      </cc:Work>
    </rdf:RDF>
  </metadata>
  <g
     id="layer1"
     transform="translate(-45.77697,-107.42916)">
    <path
       style="fill:#a34685;stroke-width:0.209917;fill-opacity:1"
       d="m 94.545223,214.63243 c -8.09289,-0.77162 -16.18892,-3.4692 -23.06671,-7.68577 -6.91524,-4.23954 -13.57689,-10.90118 -17.81642,-17.81643 -9.66132,-15.75889 -10.49895,-35.45614 -2.21179,-52.0111 4.36014,-8.71008 11.69586,-16.69653 20.02821,-21.80486 15.75889,-9.66131 35.456137,-10.49894 52.011097,-2.21178 8.71008,4.36014 16.69653,11.69585 21.80486,20.02821 9.66132,15.75889 10.49894,35.45614 2.21178,52.0111 -4.36013,8.71008 -11.69585,16.69653 -20.02821,21.80486 -9.7545,5.9802 -21.66585,8.76004 -32.932817,7.68577 z m 12.070247,-4.27984 c 10.52163,-1.59148 19.76587,-6.16282 27.36771,-13.53351 8.08795,-7.84203 13.05998,-17.50624 14.74308,-28.65638 0.52798,-3.49773 0.52798,-10.56673 0,-14.06447 -1.60374,-10.62443 -6.13178,-19.79652 -13.56204,-27.47159 -7.83328,-8.09136 -17.41861,-13.02202 -28.65371,-14.73936 -3.50749,-0.53614 -10.556967,-0.53614 -14.064457,0 -11.22336,1.71555 -20.81528,6.64895 -28.65538,14.73828 -7.42504,7.66109 -11.92201,16.79828 -13.57262,27.57763 -0.26662,1.74113 -0.36966,3.67212 -0.36966,6.92728 0,5.00527 0.28478,7.47647 1.37888,11.96528 4.29996,17.64175 18.64398,31.98576 36.28572,36.28573 2.39323,0.58332 5.77188,1.14871 8.18678,1.36999 1.91363,0.17535 8.777587,-0.0755 10.915697,-0.39888 z m -9.971077,-4.00438 c -1.82148,-0.18032 -5.72893,-0.75729 -6.82231,-1.00737 l -1.15454,-0.26407 -0.77248,-14.57356 c -0.42486,-8.01547 -0.7791,-14.87278 -0.78719,-15.23848 -0.0144,-0.64986 0.0277,-0.68007 1.8596,-1.33536 3.24277,-1.15997 5.45696,-2.96091 7.47705,-6.08155 3.07586,-4.7516 4.471997,-12.92846 3.14533,-18.42139 -1.67416,-6.93163 -6.94381,-12.91869 -12.70661,-14.43648 -6.97684,-1.83755 -15.07944,4.39201 -17.7547,13.65043 -0.74056,2.5629 -0.90991,6.4112 -0.42493,9.6562 0.77169,5.16345 2.44773,8.98578 5.28292,12.04813 1.55887,1.68376 3.18401,2.73772 5.52049,3.58022 l 1.92373,0.69366 -0.11947,1.60016 c -0.0657,0.88008 -0.39285,6.97197 -0.72699,13.53754 -0.33413,6.56556 -0.65453,11.9844 -0.712,12.04187 -0.16037,0.16037 -3.14102,-1.49763 -5.45507,-3.03444 -8.80311,-5.8463 -15.51209,-14.93364 -18.39751,-24.91948 -2.97666,-10.30157 -2.29617,-20.98993 1.96305,-30.83345 4.33737,-10.02411 13.04792,-18.84107 22.91783,-23.19778 10.55503,-4.65913 22.153887,-5.22907 32.939177,-1.61856 4.95966,1.66031 8.59274,3.58403 12.91844,6.84033 8.77466,6.60538 14.99471,16.45376 17.09643,27.06924 0.98983,4.99952 1.17371,8.80935 0.65916,13.65729 -1.44954,13.65699 -8.68612,25.53876 -20.22453,33.20676 -0.99895,0.66386 -1.88909,1.20702 -1.9781,1.20702 -0.089,0 -0.1621,-0.307 -0.16244,-0.68223 -4.2e-4,-0.37523 -0.23597,-5.12198 -0.52362,-10.54835 -0.28764,-5.42636 -0.52352,-10.3584 -0.52417,-10.96009 l -10e-4,-1.09397 0.89215,-0.23769 c 1.84616,-0.49187 4.19473,-1.9195 5.8741,-3.5707 2.56974,-2.52665 2.57617,-2.54974 2.56957,-9.22267 -0.003,-3.05954 -0.12822,-7.02698 -0.27821,-8.81653 -0.29492,-3.51871 -1.52922,-15.26738 -1.93522,-18.42024 l -0.25004,-1.94174 h -1.12708 -1.12709 v 15.21901 15.21901 h -1.36446 -1.36446 v -15.21901 -15.21901 h -1.57438 -1.57438 v 15.21901 15.21901 h -1.36446 -1.36447 v -15.21901 -15.21901 h -1.57438 -1.57438 v 15.21901 15.21901 h -1.36446 -1.36446 v -15.21901 -15.21901 h -1.44196 -1.44196 l -0.25004,1.94174 c -0.406,3.15286 -1.6403,14.90153 -1.93522,18.42024 -0.14999,1.78955 -0.27518,5.75699 -0.27821,8.81653 -0.007,6.67375 -9e-5,6.69712 2.56957,9.22092 1.6773,1.64737 3.54359,2.7954 5.66418,3.48428 1.06186,0.34494 1.10205,0.38584 1.10158,1.12103 -2.1e-4,0.41967 -0.28302,6.14741 -0.62835,12.72832 -0.34532,6.5809 -0.62849,12.32186 -0.62926,12.75767 -0.001,0.67036 -0.0903,0.82638 -0.57868,1.01312 -1.31125,0.5014 -5.37508,1.4422 -7.51871,1.74063 -2.34444,0.32639 -7.711017,0.57246 -9.222197,0.42285 z m -18.7747,-36.44268 c -2.64054,-1.77308 -4.36422,-4.23422 -5.71401,-8.1587 -0.61788,-1.79647 -0.68043,-2.2055 -0.67205,-4.39488 0.0112,-2.92817 0.68094,-5.74634 1.9076,-8.0269 0.88121,-1.63831 1.35972,-2.09018 1.77435,-1.67554 0.20565,0.20564 0.1862,0.53313 -0.0941,1.58519 -0.54924,2.06123 -0.83881,5.26817 -0.68557,7.59246 0.24061,3.64937 2.29691,8.99804 4.62263,12.02397 0.64597,0.84046 1.11783,1.61978 1.04859,1.73182 -0.24378,0.39444 -0.88849,0.19478 -2.18741,-0.67742 z"
       id="path847" />
  </g>
</svg>
